<?xml version="1.0" encoding="utf-8"?>
<svg version="1.0" width="1600.000000pt" height="900.000000pt" viewBox="0 0 1920.000000 1080.000000" preserveAspectRatio="xMidYMid meet" xmlns="http://www.w3.org/2000/svg">
  <defs/>
  <g transform="translate(0.000000,1080.000000) scale(0.100000,-0.100000)" fill="#ff0000" stroke="none">
    <path d="M0 5400 l0 -5400 5415 0 5416 0 -35 31 c-19 17 -48 56 -63 87 -27 55&#10;-28 63 -28 212 0 86 8 215 17 290 9 74 22 199 28 277 l12 142 -39 47 c-34 42&#10;-38 53 -37 98 1 28 5 66 9 84 14 61 -56 229 -205 492 -53 95 -80 162 -80 201&#10;0 32 16 69 34 81 12 8 -27 129 -77 236 -28 61 -36 68 -121 123 -90 57 -189&#10;125 -210 144 -6 6 -45 35 -86 67 -41 31 -88 68 -105 83 -16 15 -44 39 -60 53&#10;-17 15 -48 42 -70 61 -22 18 -128 119 -235 225 -108 105 -232 225 -275 266&#10;-44 42 -116 122 -160 178 -44 57 -85 109 -90 115 -6 7 -43 57 -83 112 -39 55&#10;-80 111 -89 124 -25 33 -72 103 -206 305 -116 176 -187 293 -262 434 -37 68&#10;-40 72 -74 73 -20 0 -71 6 -114 12 l-79 12 -27 85 c-25 79 -105 272 -121 295&#10;-4 6 -50 93 -103 195 -158 307 -217 487 -217 661 0 121 45 400 87 539 18 61&#10;69 134 138 198 45 41 46 44 43 95 l-3 52 -165 5 c-197 6 -223 15 -240 83 -7&#10;23 -23 76 -36 117 -40 118 -45 147 -35 188 35 147 95 327 147 440 19 41 34 76&#10;34 78 0 7 59 133 155 329 46 94 95 204 110 245 56 159 109 288 145 355 21 39&#10;52 96 69 127 90 169 167 277 257 364 115 110 214 148 444 166 111 9 150 15&#10;165 29 14 12 46 19 105 23 123 9 203 25 240 47 47 29 67 86 89 259 25 184 24&#10;170 8 170 -39 0 -77 111 -77 225 0 85 25 125 79 125 l40 0 5 53 c3 28 8 88 11&#10;131 8 103 30 197 60 256 30 60 110 131 188 170 l62 29 -4852 1 -4853 0 0&#10;-5400z" style="fill: rgb(0, 111, 183);"/>
    <path d="M10100 10773 c32 -16 85 -58 127 -100 39 -40 76 -73 82 -73 21 0 81&#10;-85 96 -136 36 -123 11 -276 -72 -451 -14 -30 -13 -34 7 -61 31 -42 22 -77&#10;-51 -202 -47 -78 -68 -105 -91 -114 -23 -8 -39 -28 -65 -81 -63 -125 -130&#10;-215 -184 -250 -27 -18 -38 -33 -41 -57 -9 -58 4 -73 114 -128 124 -63 198&#10;-115 198 -140 0 -11 24 -35 63 -61 248 -169 308 -216 368 -296 150 -199 215&#10;-447 225 -853 3 -124 10 -213 19 -245 14 -51 48 -231 60 -320 14 -104 56 -240&#10;104 -338 98 -204 124 -266 150 -362 12 -44 28 -126 36 -184 17 -127 39 -246&#10;53 -282 9 -21 21 -29 64 -39 80 -19 124 -45 136 -79 8 -22 26 -38 70 -60 59&#10;-30 102 -71 102 -97 0 -8 15 -36 34 -63 98 -139 139 -272 139 -446 -1 -213&#10;-63 -375 -203 -528 -49 -54 -159 -146 -190 -160 -8 -4 -31 -17 -50 -28 -86&#10;-53 -194 -79 -345 -86 -114 -5 -142 -3 -215 16 -267 69 -477 254 -570 503 -86&#10;232 -58 504 74 707 58 89 134 171 212 226 68 49 187 107 242 120 38 8 38 9&#10;-14 123 -19 41 -34 75 -34 77 0 2 -61 128 -135 279 -105 213 -141 298 -161&#10;373 -28 113 -109 513 -150 751 -25 140 -31 162 -47 162 -24 0 -130 -62 -240&#10;-142 -99 -70 -83 -45 -188 -308 -27 -69 -53 -134 -58 -145 -5 -11 -27 -67 -49&#10;-125 -74 -191 -80 -240 -32 -260 36 -15 92 -75 118 -127 33 -65 93 -265 237&#10;-783 31 -113 58 -212 61 -221 2 -8 -9 -27 -24 -42 l-28 -27 32 -113 c75 -261&#10;123 -525 163 -892 17 -154 38 -308 46 -343 25 -104 119 -310 201 -438 76 -118&#10;148 -281 178 -399 19 -77 89 -456 112 -605 39 -263 60 -349 93 -393 109 -147&#10;164 -248 183 -339 10 -48 8 -66 -25 -200 -54 -218 -63 -307 -43 -410 9 -46 21&#10;-117 26 -158 14 -97 27 -144 55 -201 28 -54 32 -81 21 -132 -9 -42 -3 -69 43&#10;-201 60 -169 85 -282 85 -396 1 -159 -34 -244 -137 -342 l-51 -48 4082 0 4082&#10;0 0 5400 0 5400 -4577 0 -4577 0 54 -27z" style="fill: rgb(227, 42, 82);"/>
  </g>
</svg>